<svg xmlns="http://www.w3.org/2000/svg" xmlns:xlink="http://www.w3.org/1999/xlink" version="1.1" x="0" y="0" viewBox="5 7.84254789352417 90.0001449584961 84.3154525756836" enable-background="new 0 0 100 100" xml:space="preserve" height="104.2283293090909" width="111.2555819845695" class="icon-icon-0" data-fill-palette-color="accent" id="icon-0"><path d="M73.576 41.18c13.263 0 20.692-11.067 21.003-11.537 0.375-0.571 0.507-1.269 0.366-1.935-0.144-0.668-0.545-1.251-1.119-1.622-7.02-4.515-13.652-6.806-19.717-6.806-7.85 0-13.103 3.729-16.21 7.002-1.316-3.913-3.946-9.027-9.156-12.908C41.2 7.752 30.598 6.407 17.23 9.378c-1.371 0.305-2.241 1.657-1.945 3.031 0.11 0.514 2.824 12.669 13.786 19.501 6.831 4.258 15.232 5.464 25.021 3.599v14.016c-2.412 0.642-4.641 2.19-7.161 4.08-2.102 1.577-5.202 2.886-7.475 3.719-3.293-1.814-7.167-3.007-13.489-3.007-2.836 0-5.323 0.787-7.729 1.548-2.468 0.782-4.799 1.519-7.613 1.519C7.524 57.384 5 59.908 5 63.009v14.319c0 3.103 2.524 5.625 5.625 5.625 5.348 0 13.711 0.277 15.555 0.892 3.324 1.107 11.117 5.728 13.839 7.415 0.035 0.021 0.07 0.041 0.105 0.062 0.984 0.548 2.101 0.836 3.229 0.836h25.999c2.754 0 5.812-2.546 6.873-4.305 3.407-5.657 15.633-21.051 15.756-21.207 0.108-0.139 0.205-0.289 0.284-0.447 1.585-3.17 0.369-6.97-2.824-8.84-4.676-2.738-8.599 1.323-10.075 2.852-0.314 0.326-0.64 0.651-0.965 0.975-3.182-1.303-7.648-3.358-8.812-4.383-0.39-0.344-0.771-0.697-1.157-1.056-1.837-1.699-3.92-3.624-7.573-5.451-0.557-0.278-1.105-0.485-1.655-0.656V36.948C64.055 39.746 68.874 41.18 73.576 41.18zM79.022 27.888c-4.782-1.792-10.604-1.16-15.112-0.14 2.423-1.809 5.777-3.354 10.199-3.354 4.392 0 9.258 1.515 14.502 4.506-2.52 2.725-7.749 7.166-15.035 7.166-3.388 0-6.914-0.96-10.526-2.834 3.978-1.104 9.85-2.18 14.177-0.556 1.324 0.497 2.798-0.174 3.293-1.496C81.015 29.858 80.344 28.383 79.022 27.888zM31.823 27.601c-6.387-3.958-9.476-10.301-10.761-13.78 10.509-1.894 18.77-0.681 24.576 3.615 2.384 1.764 4.074 3.885 5.312 5.973-4.384-2.971-10.141-5.911-15.778-5.911-1.412 0-2.558 1.146-2.558 2.558s1.146 2.556 2.558 2.556c6.222 0 13.15 4.93 16.898 8.035C44.076 31.977 37.27 30.978 31.823 27.601zM67.764 72.721c0.044 0.003 0.088 0.004 0.135 0.004 0.662 0 1.216 0.431 1.429 1.022 0.059 0.162 0.104 0.33 0.104 0.511 0 0.847-0.688 1.535-1.532 1.535-0.047 0-0.091 0-0.135 0.003l-19.348 1.018c-1.188-0.043-3.616-1.581-5.776-3.067-0.642-0.442-1.264-0.881-1.818-1.273-0.624-0.442-1.233-0.87-1.833-1.283-1.309-0.904-2.556-1.717-3.698-2.288-0.748-0.374-1.586-0.338-2.28 0.007-0.479 0.239-0.892 0.621-1.15 1.137-0.631 1.264-0.12 2.799 1.143 3.431 1.317 0.658 3.041 1.878 4.865 3.17 3.835 2.716 7.457 5.282 10.597 5.282 0.044 0 0.091-0.001 0.135-0.004l19.372-1.018c3.633-0.041 6.574-3.007 6.574-6.649 0-0.174-0.033-0.34-0.047-0.511-0.05-0.635-0.164-1.253-0.378-1.827 1.556-1.289 4.057-3.423 6.56-5.815 0.799-0.762 1.597-1.549 2.364-2.344 2.18-2.256 3.047-2.436 3.812-1.989 0.677 0.397 1.175 1.175 0.911 1.953-1.699 2.145-12.557 15.899-15.923 21.488-0.448 0.74-1.945 1.772-2.493 1.831H43.353c-0.246 0-0.489-0.059-0.706-0.171-0.961-0.593-10.42-6.403-14.85-7.879-3.296-1.099-14.883-1.154-17.172-1.154-0.283 0-0.511-0.23-0.511-0.511V63.009c0-0.281 0.229-0.511 0.511-0.511 3.604 0 6.554-0.933 9.157-1.758 2.221-0.703 4.14-1.31 6.185-1.31 3.796 0 6.434 0.456 8.654 1.284 2.531 0.944 4.518 2.375 7.03 4.195 1.819 1.318 3.882 2.812 6.53 4.389 1.33 0.792 3.536 1.411 6.005 1.894C59.495 72.229 66.032 72.63 67.764 72.721z" fill="#8abe53" data-fill-palette-color="accent"></path></svg>